<?xml version="1.0" encoding="UTF-8"?>
<svg xmlns="http://www.w3.org/2000/svg" xmlns:xlink="http://www.w3.org/1999/xlink" width="30px" height="31px" viewBox="0 0 30 30" version="1.1">
<g id="surface1">
<path style=" stroke:none;fill-rule:nonzero;fill:rgb(97.647059%,65.882353%,14.901961%);fill-opacity:1;" d="M 18.222656 29.367188 C 16.425781 29.371094 14.644531 29.058594 12.960938 28.457031 C 12.867188 28.421875 12.777344 28.367188 12.703125 28.300781 C 12.625 28.234375 12.566406 28.152344 12.523438 28.0625 C 12.480469 27.972656 12.460938 27.875 12.453125 27.777344 C 12.453125 27.679688 12.46875 27.582031 12.503906 27.488281 C 12.539062 27.394531 12.59375 27.308594 12.664062 27.238281 C 12.734375 27.167969 12.820312 27.105469 12.910156 27.066406 C 13.003906 27.027344 13.105469 27.003906 13.210938 27 C 13.3125 26.996094 13.414062 27.011719 13.511719 27.046875 C 15.742188 27.839844 18.148438 28.058594 20.492188 27.683594 C 22.839844 27.308594 25.039062 26.351562 26.882812 24.910156 C 21.136719 24.964844 15.511719 22.355469 12.714844 18.167969 C 10.914062 15.472656 10.328125 12.300781 11.011719 9 C 11.539062 6.605469 12.617188 4.355469 14.167969 2.410156 C 11.203125 3.316406 8.65625 5.171875 6.945312 7.667969 C 5.234375 10.160156 4.464844 13.140625 4.769531 16.113281 C 4.78125 16.214844 4.769531 16.3125 4.742188 16.40625 C 4.710938 16.503906 4.660156 16.589844 4.597656 16.667969 C 4.53125 16.742188 4.449219 16.808594 4.359375 16.855469 C 4.269531 16.902344 4.171875 16.929688 4.066406 16.941406 C 3.964844 16.949219 3.863281 16.941406 3.761719 16.910156 C 3.664062 16.882812 3.574219 16.832031 3.496094 16.769531 C 3.414062 16.707031 3.347656 16.628906 3.300781 16.542969 C 3.25 16.457031 3.222656 16.363281 3.210938 16.261719 C 2.832031 12.523438 3.972656 8.785156 6.390625 5.835938 C 8.8125 2.886719 12.328125 0.949219 16.203125 0.433594 C 16.363281 0.410156 16.527344 0.441406 16.671875 0.511719 C 16.816406 0.585938 16.933594 0.699219 17.007812 0.839844 C 17.078125 0.980469 17.105469 1.140625 17.082031 1.292969 C 17.054688 1.449219 16.980469 1.59375 16.867188 1.707031 C 12.863281 5.613281 10.433594 11.964844 14.03125 17.355469 C 16.871094 21.605469 22.972656 24.035156 28.882812 23.265625 C 29.042969 23.246094 29.199219 23.269531 29.34375 23.339844 C 29.484375 23.410156 29.601562 23.519531 29.679688 23.660156 C 29.753906 23.792969 29.785156 23.949219 29.761719 24.101562 C 29.746094 24.253906 29.679688 24.394531 29.570312 24.511719 C 28.140625 26.042969 26.390625 27.265625 24.4375 28.101562 C 22.480469 28.941406 20.359375 29.371094 18.222656 29.367188 Z M 18.222656 29.367188 "/>
<path style=" stroke:none;fill-rule:nonzero;fill:rgb(97.647059%,65.882353%,14.901961%);fill-opacity:1;" d="M 5.738281 29.667969 C 4.605469 29.667969 3.496094 29.34375 2.550781 28.738281 C 1.605469 28.128906 0.871094 27.269531 0.4375 26.261719 C 0.00390625 25.253906 -0.113281 24.144531 0.113281 23.074219 C 0.332031 22.003906 0.878906 21.023438 1.679688 20.25 C 2.484375 19.480469 3.507812 18.953125 4.621094 18.742188 C 5.734375 18.527344 6.886719 18.636719 7.9375 19.054688 C 8.984375 19.472656 9.882812 20.179688 10.511719 21.085938 C 11.140625 21.996094 11.480469 23.058594 11.480469 24.152344 C 11.476562 25.613281 10.871094 27.015625 9.796875 28.050781 C 8.71875 29.082031 7.261719 29.664062 5.738281 29.667969 Z M 5.738281 20.140625 C 4.914062 20.140625 4.105469 20.375 3.417969 20.816406 C 2.734375 21.253906 2.199219 21.882812 1.882812 22.617188 C 1.570312 23.347656 1.484375 24.15625 1.644531 24.933594 C 1.804688 25.710938 2.207031 26.425781 2.789062 26.988281 C 3.371094 27.550781 4.113281 27.929688 4.925781 28.085938 C 5.734375 28.238281 6.574219 28.160156 7.335938 27.855469 C 8.097656 27.554688 8.75 27.039062 9.210938 26.378906 C 9.667969 25.71875 9.914062 24.945312 9.914062 24.152344 C 9.914062 23.089844 9.472656 22.066406 8.691406 21.316406 C 7.90625 20.566406 6.84375 20.140625 5.738281 20.140625 Z M 5.738281 20.140625 "/>
</g>
</svg>
