<?xml version="1.0" encoding="UTF-8"?>
<svg xmlns="http://www.w3.org/2000/svg" xmlns:xlink="http://www.w3.org/1999/xlink" width="30px" height="30px" viewBox="0 0 30 30" version="1.1">
<g id="surface1">
<path style=" stroke:none;fill-rule:nonzero;fill:rgb(97.647059%,65.882353%,14.901961%);fill-opacity:1;" d="M 14.976562 5.347656 C 14.691406 5.347656 14.421875 5.234375 14.21875 5.03125 C 14.019531 4.832031 13.90625 4.558594 13.90625 4.277344 L 13.90625 1.066406 C 13.90625 0.785156 14.019531 0.511719 14.21875 0.3125 C 14.421875 0.113281 14.691406 0 14.976562 0 C 15.257812 0 15.527344 0.113281 15.730469 0.3125 C 15.929688 0.511719 16.042969 0.785156 16.042969 1.066406 L 16.042969 4.277344 C 16.042969 4.417969 16.019531 4.558594 15.964844 4.6875 C 15.910156 4.816406 15.832031 4.933594 15.730469 5.03125 C 15.632812 5.132812 15.515625 5.210938 15.386719 5.261719 C 15.253906 5.316406 15.117188 5.347656 14.976562 5.347656 Z M 14.976562 5.347656 "/>
<path style=" stroke:none;fill-rule:nonzero;fill:rgb(97.647059%,65.882353%,14.901961%);fill-opacity:1;" d="M 14.976562 29.945312 C 14.835938 29.945312 14.695312 29.917969 14.566406 29.863281 C 14.4375 29.808594 14.316406 29.730469 14.21875 29.632812 C 14.121094 29.535156 14.042969 29.414062 13.984375 29.285156 C 13.933594 29.15625 13.90625 29.015625 13.90625 28.875 L 13.90625 25.667969 C 13.90625 25.527344 13.933594 25.386719 13.984375 25.257812 C 14.039062 25.128906 14.121094 25.011719 14.21875 24.910156 C 14.316406 24.808594 14.433594 24.734375 14.566406 24.675781 C 14.695312 24.621094 14.835938 24.597656 14.976562 24.597656 C 15.117188 24.597656 15.253906 24.621094 15.386719 24.675781 C 15.515625 24.734375 15.632812 24.808594 15.734375 24.910156 C 15.832031 25.011719 15.910156 25.128906 15.964844 25.257812 C 16.019531 25.386719 16.042969 25.527344 16.042969 25.667969 L 16.042969 28.875 C 16.042969 29.015625 16.019531 29.15625 15.964844 29.285156 C 15.910156 29.414062 15.832031 29.535156 15.730469 29.632812 C 15.632812 29.730469 15.515625 29.808594 15.386719 29.863281 C 15.253906 29.917969 15.117188 29.945312 14.976562 29.945312 Z M 14.976562 29.945312 "/>
<path style=" stroke:none;fill-rule:nonzero;fill:rgb(97.647059%,65.882353%,14.901961%);fill-opacity:1;" d="M 22.535156 8.476562 C 22.324219 8.476562 22.117188 8.417969 21.945312 8.296875 C 21.765625 8.179688 21.628906 8.011719 21.550781 7.816406 C 21.46875 7.625 21.449219 7.40625 21.488281 7.199219 C 21.527344 6.996094 21.632812 6.804688 21.785156 6.652344 L 24.050781 4.382812 C 24.25 4.183594 24.523438 4.070312 24.808594 4.070312 C 25.089844 4.070312 25.363281 4.183594 25.5625 4.382812 C 25.765625 4.582031 25.875 4.859375 25.875 5.140625 C 25.875 5.425781 25.765625 5.695312 25.5625 5.894531 L 23.292969 8.167969 C 23.195312 8.261719 23.074219 8.34375 22.949219 8.398438 C 22.816406 8.449219 22.675781 8.476562 22.535156 8.476562 Z M 22.535156 8.476562 "/>
<path style=" stroke:none;fill-rule:nonzero;fill:rgb(97.647059%,65.882353%,14.901961%);fill-opacity:1;" d="M 5.144531 25.875 C 4.933594 25.875 4.722656 25.8125 4.550781 25.695312 C 4.371094 25.578125 4.234375 25.410156 4.15625 25.210938 C 4.074219 25.019531 4.054688 24.804688 4.09375 24.597656 C 4.136719 24.386719 4.238281 24.199219 4.386719 24.046875 L 6.65625 21.78125 C 6.855469 21.578125 7.128906 21.464844 7.414062 21.464844 C 7.695312 21.464844 7.96875 21.578125 8.167969 21.78125 C 8.371094 21.976562 8.480469 22.253906 8.480469 22.535156 C 8.480469 22.816406 8.371094 23.089844 8.167969 23.289062 L 5.898438 25.558594 C 5.800781 25.660156 5.683594 25.738281 5.550781 25.792969 C 5.425781 25.84375 5.285156 25.875 5.144531 25.875 Z M 5.144531 25.875 "/>
<path style=" stroke:none;fill-rule:nonzero;fill:rgb(97.647059%,65.882353%,14.901961%);fill-opacity:1;" d="M 28.878906 16.042969 L 25.671875 16.042969 C 25.386719 16.042969 25.113281 15.925781 24.914062 15.726562 C 24.714844 15.527344 24.601562 15.253906 24.601562 14.972656 C 24.601562 14.6875 24.714844 14.417969 24.914062 14.214844 C 25.113281 14.015625 25.386719 13.902344 25.671875 13.902344 L 28.878906 13.902344 C 29.019531 13.902344 29.160156 13.929688 29.289062 13.980469 C 29.421875 14.035156 29.539062 14.117188 29.636719 14.214844 C 29.734375 14.3125 29.816406 14.433594 29.871094 14.5625 C 29.921875 14.691406 29.949219 14.832031 29.949219 14.972656 C 29.949219 15.113281 29.921875 15.25 29.871094 15.382812 C 29.816406 15.511719 29.734375 15.628906 29.636719 15.730469 C 29.539062 15.828125 29.421875 15.90625 29.289062 15.960938 C 29.160156 16.015625 29.019531 16.042969 28.878906 16.042969 Z M 28.878906 16.042969 "/>
<path style=" stroke:none;fill-rule:nonzero;fill:rgb(97.647059%,65.882353%,14.901961%);fill-opacity:1;" d="M 4.277344 16.042969 L 1.070312 16.042969 C 0.929688 16.042969 0.789062 16.015625 0.664062 15.960938 C 0.53125 15.90625 0.410156 15.828125 0.316406 15.730469 C 0.214844 15.628906 0.132812 15.511719 0.0820312 15.382812 C 0.0273438 15.25 0 15.113281 0 14.972656 C 0 14.832031 0.0273438 14.691406 0.0820312 14.5625 C 0.132812 14.433594 0.214844 14.3125 0.316406 14.214844 C 0.410156 14.117188 0.53125 14.035156 0.664062 13.980469 C 0.789062 13.929688 0.929688 13.902344 1.070312 13.902344 L 4.277344 13.902344 C 4.5625 13.902344 4.835938 14.015625 5.035156 14.214844 C 5.238281 14.417969 5.347656 14.6875 5.347656 14.972656 C 5.347656 15.253906 5.238281 15.527344 5.035156 15.726562 C 4.835938 15.925781 4.5625 16.042969 4.277344 16.042969 Z M 4.277344 16.042969 "/>
<path style=" stroke:none;fill-rule:nonzero;fill:rgb(97.647059%,65.882353%,14.901961%);fill-opacity:1;" d="M 24.808594 25.875 C 24.667969 25.875 24.527344 25.84375 24.398438 25.792969 C 24.269531 25.738281 24.152344 25.660156 24.050781 25.558594 L 21.785156 23.289062 C 21.683594 23.191406 21.601562 23.074219 21.550781 22.945312 C 21.496094 22.816406 21.46875 22.675781 21.46875 22.535156 C 21.46875 22.394531 21.496094 22.253906 21.550781 22.125 C 21.601562 21.996094 21.683594 21.878906 21.78125 21.777344 C 21.878906 21.679688 21.996094 21.597656 22.128906 21.546875 C 22.257812 21.492188 22.394531 21.464844 22.535156 21.464844 C 22.675781 21.464844 22.816406 21.492188 22.949219 21.546875 C 23.074219 21.597656 23.195312 21.679688 23.292969 21.78125 L 25.5625 24.046875 C 25.714844 24.199219 25.816406 24.386719 25.855469 24.597656 C 25.898438 24.804688 25.875 25.019531 25.792969 25.210938 C 25.714844 25.410156 25.578125 25.578125 25.402344 25.695312 C 25.226562 25.8125 25.019531 25.875 24.808594 25.875 Z M 24.808594 25.875 "/>
<path style=" stroke:none;fill-rule:nonzero;fill:rgb(97.647059%,65.882353%,14.901961%);fill-opacity:1;" d="M 7.414062 8.476562 C 7.273438 8.476562 7.132812 8.449219 7 8.398438 C 6.875 8.34375 6.757812 8.261719 6.65625 8.167969 L 4.386719 5.894531 C 4.289062 5.796875 4.207031 5.679688 4.15625 5.546875 C 4.101562 5.421875 4.074219 5.28125 4.074219 5.140625 C 4.074219 5 4.101562 4.863281 4.15625 4.730469 C 4.207031 4.601562 4.289062 4.484375 4.386719 4.382812 C 4.488281 4.285156 4.605469 4.207031 4.734375 4.152344 C 4.863281 4.097656 5.003906 4.070312 5.144531 4.070312 C 5.285156 4.070312 5.425781 4.097656 5.550781 4.152344 C 5.683594 4.207031 5.800781 4.285156 5.898438 4.382812 L 8.167969 6.652344 C 8.316406 6.804688 8.421875 6.996094 8.460938 7.199219 C 8.5 7.40625 8.480469 7.625 8.402344 7.816406 C 8.320312 8.011719 8.183594 8.179688 8.003906 8.296875 C 7.832031 8.417969 7.625 8.476562 7.414062 8.476562 Z M 7.414062 8.476562 "/>
<path style=" stroke:none;fill-rule:nonzero;fill:rgb(97.647059%,65.882353%,14.901961%);fill-opacity:1;" d="M 14.976562 21.386719 C 13.707031 21.386719 12.464844 21.011719 11.410156 20.308594 C 10.355469 19.605469 9.53125 18.597656 9.046875 17.425781 C 8.5625 16.253906 8.433594 14.964844 8.683594 13.722656 C 8.929688 12.476562 9.539062 11.332031 10.4375 10.433594 C 11.332031 9.535156 12.480469 8.925781 13.722656 8.679688 C 14.964844 8.429688 16.257812 8.558594 17.429688 9.042969 C 18.601562 9.527344 19.605469 10.351562 20.308594 11.40625 C 21.015625 12.460938 21.390625 13.703125 21.390625 14.972656 C 21.390625 16.675781 20.714844 18.304688 19.511719 19.507812 C 18.308594 20.710938 16.675781 21.386719 14.976562 21.386719 Z M 14.976562 10.695312 C 14.128906 10.695312 13.300781 10.945312 12.597656 11.414062 C 11.894531 11.886719 11.347656 12.550781 11.023438 13.335938 C 10.699219 14.117188 10.613281 14.976562 10.777344 15.808594 C 10.945312 16.636719 11.351562 17.398438 11.949219 17.996094 C 12.550781 18.597656 13.308594 19.003906 14.140625 19.167969 C 14.96875 19.332031 15.832031 19.25 16.613281 18.925781 C 17.394531 18.597656 18.0625 18.054688 18.53125 17.351562 C 19 16.644531 19.253906 15.816406 19.253906 14.972656 C 19.253906 13.839844 18.800781 12.75 18 11.949219 C 17.195312 11.144531 16.109375 10.695312 14.976562 10.695312 Z M 14.976562 10.695312 "/>
</g>
</svg>
