<svg width="190" height="252" viewBox="0 0 190 252" fill="none" xmlns="http://www.w3.org/2000/svg">
<ellipse cx="15.811" cy="242.751" rx="9.22311" ry="8.23443" fill="white"/>
<ellipse cx="13.8348" cy="69.1692" rx="11.1995" ry="57.3116" fill="white"/>
<rect x="22.3989" width="151.523" height="250.985" fill="white"/>
<rect x="15.1523" y="11.8575" width="110.019" height="236.493" fill="white"/>
<path d="M141.142 77.8253C145.872 77.8253 149.707 73.9911 149.707 69.2614C149.707 64.5318 145.872 60.6976 141.142 60.6976C136.413 60.6976 132.578 64.5318 132.578 69.2614C132.578 73.9911 136.413 77.8253 141.142 77.8253Z" fill="#00B0FF"/>
<path d="M140.294 72.5284C140.101 72.5287 139.913 72.4664 139.759 72.3508L139.75 72.3437L137.737 70.8028C137.643 70.7315 137.565 70.6424 137.506 70.5407C137.447 70.439 137.408 70.3267 137.393 70.2101C137.377 70.0935 137.385 69.975 137.415 69.8614C137.445 69.7478 137.498 69.6412 137.569 69.5479C137.641 69.4545 137.73 69.3762 137.832 69.3174C137.934 69.2586 138.046 69.2204 138.163 69.2051C138.279 69.1898 138.398 69.1977 138.511 69.2283C138.625 69.2588 138.731 69.3115 138.825 69.3833L140.128 70.3828L143.209 66.3653C143.28 66.2722 143.369 66.194 143.471 66.1352C143.573 66.0765 143.685 66.0383 143.802 66.0229C143.918 66.0076 144.036 66.0153 144.15 66.0456C144.263 66.076 144.369 66.1284 144.463 66.1999C144.651 66.3443 144.774 66.5578 144.805 66.7928C144.836 67.0278 144.773 67.2656 144.629 67.4538L141.005 72.1794C140.921 72.2883 140.813 72.3764 140.69 72.4369C140.567 72.4974 140.431 72.5287 140.294 72.5284Z" fill="white"/>
<path d="M141.142 102.858C145.872 102.858 149.707 99.0238 149.707 94.2942C149.707 89.5645 145.872 85.7303 141.142 85.7303C136.413 85.7303 132.578 89.5645 132.578 94.2942C132.578 99.0238 136.413 102.858 141.142 102.858Z" fill="#00B0FF"/>
<path d="M140.294 97.5611C140.101 97.5614 139.913 97.4991 139.759 97.3836L139.75 97.3764L137.737 95.8355C137.643 95.7642 137.565 95.6751 137.506 95.5734C137.447 95.4717 137.408 95.3594 137.393 95.2428C137.377 95.1263 137.385 95.0078 137.415 94.8941C137.445 94.7805 137.498 94.6739 137.569 94.5806C137.641 94.4872 137.73 94.4089 137.832 94.3501C137.934 94.2913 138.046 94.2531 138.163 94.2378C138.279 94.2226 138.398 94.2304 138.511 94.261C138.625 94.2916 138.731 94.3442 138.825 94.416L140.128 95.4156L143.209 91.398C143.28 91.3049 143.369 91.2267 143.471 91.1679C143.573 91.1092 143.685 91.071 143.802 91.0557C143.918 91.0403 144.036 91.048 144.15 91.0784C144.263 91.1087 144.369 91.1611 144.463 91.2326C144.651 91.377 144.774 91.5905 144.805 91.8255C144.836 92.0605 144.773 92.2983 144.629 92.4866L141.005 97.2121C140.921 97.321 140.813 97.4091 140.69 97.4696C140.567 97.5302 140.431 97.5614 140.294 97.5611Z" fill="white"/>
<path d="M145.754 131.843C150.484 131.843 154.318 128.009 154.318 123.279C154.318 118.55 150.484 114.716 145.754 114.716C141.024 114.716 137.19 118.55 137.19 123.279C137.19 128.009 141.024 131.843 145.754 131.843Z" fill="#00B0FF"/>
<path d="M144.905 126.546C144.712 126.547 144.525 126.484 144.371 126.369L144.361 126.362L142.348 124.821C142.255 124.749 142.176 124.66 142.117 124.559C142.058 124.457 142.02 124.345 142.004 124.228C141.989 124.111 141.996 123.993 142.026 123.879C142.057 123.766 142.109 123.659 142.181 123.566C142.252 123.472 142.341 123.394 142.443 123.335C142.545 123.276 142.658 123.238 142.774 123.223C142.891 123.208 143.009 123.216 143.123 123.246C143.237 123.277 143.343 123.329 143.436 123.401L144.74 124.401L147.821 120.383C147.892 120.29 147.981 120.212 148.083 120.153C148.184 120.094 148.297 120.056 148.413 120.041C148.53 120.026 148.648 120.033 148.761 120.064C148.875 120.094 148.981 120.146 149.074 120.218C149.262 120.362 149.386 120.576 149.417 120.811C149.448 121.046 149.384 121.284 149.24 121.472L145.616 126.197C145.533 126.306 145.425 126.394 145.302 126.455C145.178 126.515 145.043 126.547 144.905 126.546Z" fill="white"/>
<path d="M6.72669 239.006L6.72627 239.008L6.50914 239.561L6.50705 239.566C6.10209 240.564 5.89095 241.631 5.88489 242.708L5.88487 242.711C5.87067 243.928 6.11472 245.135 6.60088 246.251C7.08705 247.367 7.80428 248.367 8.70533 249.186L8.711 249.191C9.29694 249.74 9.96019 250.201 10.6796 250.557L10.6846 250.56C11.2824 250.865 11.9147 251.096 12.568 251.25L12.5723 251.251C13.2383 251.413 13.9215 251.495 14.607 251.493H14.608H170.953C170.976 251.493 170.998 251.495 171.006 251.495L171.008 251.496L171.038 251.498C171.058 251.499 171.084 251.5 171.118 251.5C172.024 251.5 177.083 251.24 181.695 245.686C188.71 237.236 194.733 216.219 182.338 164.159C165.952 95.3518 179.618 34.5648 186.257 11.6264M6.72669 239.006L12.4948 214.978C15.0989 195.482 15.2122 165.929 7.2602 122.623L6.76842 122.713L7.2602 122.622C-7.58567 41.8024 5.73602 12.7405 12.0275 4.08898M6.72669 239.006C8.77824 233.742 11.0338 225.956 12.4948 214.978L6.72669 239.006ZM186.257 11.6264L186.736 11.765L186.257 11.6272C186.257 11.6269 186.257 11.6266 186.257 11.6264ZM186.257 11.6264C186.63 10.3285 186.697 8.96171 186.451 7.63382C186.206 6.30562 185.655 5.05263 184.842 3.97367C184.03 2.89471 182.977 2.01928 181.769 1.41646C180.56 0.813641 179.227 0.499905 177.877 0.5H19.0815M19.0815 0.5C19.0816 0.5 19.0817 0.5 19.0817 0.5L19.0812 0.000974688V0.5H19.0815ZM19.0815 0.5C17.7063 0.50138 16.3508 0.827105 15.1251 1.45072C13.8995 2.07432 12.8382 2.97822 12.0275 4.08898M12.0275 4.08898C12.0276 4.08882 12.0278 4.08867 12.0279 4.08851L11.6235 3.79447L12.0274 4.08919C12.0274 4.08912 12.0275 4.08905 12.0275 4.08898ZM12.1454 221.388L12.1462 221.383C15.8479 201.203 16.5463 170.009 7.81814 122.52L7.81813 122.52C-6.93513 42.1922 6.07998 13.2363 12.4838 4.42278L12.4849 4.42127C13.2443 3.38433 14.2369 2.54051 15.3826 1.95797C16.5283 1.37543 17.7949 1.07052 19.0802 1.06784L19.0812 1.06784L177.876 1.06784C177.876 1.06784 177.876 1.06784 177.876 1.06784H177.877V1.56784L12.1454 221.388ZM12.1454 221.388C11.0551 227.671 9.34084 233.83 7.02816 239.773C6.90218 240.084 6.7988 240.403 6.71883 240.729C6.41592 241.848 6.36002 243.019 6.55505 244.161C6.75031 245.305 7.19236 246.392 7.85043 247.348C8.59834 248.451 9.6051 249.355 10.7828 249.98C11.9609 250.605 13.2742 250.932 14.6079 250.932H170.985M12.1454 221.388L170.985 250.932M170.985 250.932C171.37 250.942 176.556 251.031 181.306 245.263L170.985 250.932Z" fill="white" stroke="white"/>
<path d="M107.385 74.7952H25.5724C23.9092 74.7952 22.3142 74.1346 21.1382 72.9587C19.9622 71.7827 19.3015 70.1878 19.3015 68.5247C19.3015 66.8617 19.9622 65.2667 21.1382 64.0908C22.3142 62.9148 23.9092 62.2542 25.5724 62.2542H107.385C109.049 62.2542 110.644 62.9148 111.82 64.0908C112.996 65.2667 113.656 66.8617 113.656 68.5247C113.656 70.1878 112.996 71.7827 111.82 72.9587C110.644 74.1346 109.049 74.7952 107.385 74.7952Z" fill="#CCCCCC"/>
<path d="M107.385 101.804H25.5724C23.9092 101.804 22.3142 101.144 21.1382 99.9676C19.9622 98.7916 19.3015 97.1967 19.3015 95.5336C19.3015 93.8706 19.9622 92.2756 21.1382 91.0997C22.3142 89.9237 23.9092 89.2631 25.5724 89.2631H107.385C109.049 89.2631 110.644 89.9237 111.82 91.0997C112.996 92.2756 113.656 93.8706 113.656 95.5336C113.656 97.1967 112.996 98.7916 111.82 99.9676C110.644 101.144 109.049 101.804 107.385 101.804Z" fill="#CCCCCC"/>
<path d="M113.973 129.472H32.1603C30.4971 129.472 28.9021 128.811 27.7261 127.635C26.5501 126.459 25.8894 124.864 25.8894 123.201C25.8894 121.538 26.5501 119.943 27.7261 118.767C28.9021 117.591 30.4971 116.931 32.1603 116.931H113.973C115.636 116.931 117.231 117.591 118.407 118.767C119.584 119.943 120.244 121.538 120.244 123.201C120.244 124.864 119.584 126.459 118.407 127.635C117.231 128.811 115.636 129.472 113.973 129.472Z" fill="#CCCCCC"/>
<path d="M118.585 158.457H36.7719C35.1087 158.457 33.5137 157.796 32.3377 156.62C31.1616 155.445 30.501 153.85 30.501 152.187C30.501 150.524 31.1616 148.929 32.3377 147.753C33.5137 146.577 35.1087 145.916 36.7719 145.916H118.585C120.248 145.916 121.843 146.577 123.019 147.753C124.195 148.929 124.856 150.524 124.856 152.187C124.856 153.85 124.195 155.445 123.019 156.62C121.843 157.796 120.248 158.457 118.585 158.457Z" fill="#CCCCCC"/>
<path d="M118.62 26.1069H59.8299C59.0058 26.1077 58.1897 25.9462 57.4281 25.6314C56.6665 25.3167 55.9745 24.8549 55.3915 24.2726C54.8085 23.6902 54.346 22.9987 54.0305 22.2375C53.7149 21.4763 53.5525 20.6604 53.5525 19.8364C53.5525 19.0123 53.7149 18.1964 54.0305 17.4352C54.346 16.674 54.8085 15.9825 55.3915 15.4001C55.9745 14.8178 56.6665 14.356 57.4281 14.0413C58.1897 13.7265 59.0058 13.565 59.8299 13.5658H118.62C120.283 13.5658 121.878 14.2264 123.054 15.4024C124.23 16.5784 124.891 18.1733 124.891 19.8364C124.891 21.4994 124.23 23.0943 123.054 24.2703C121.878 25.4463 120.283 26.1069 118.62 26.1069Z" fill="#00B0FF"/>
<path d="M151.024 160.75C155.754 160.75 159.589 156.916 159.589 152.186C159.589 147.457 155.754 143.623 151.024 143.623C146.294 143.623 142.46 147.457 142.46 152.186C142.46 156.916 146.294 160.75 151.024 160.75Z" fill="#CCCCCC"/>
<path d="M122.538 186.784H40.7247C39.0616 186.784 37.4666 186.123 36.2906 184.947C35.1145 183.771 34.4539 182.176 34.4539 180.513C34.4539 178.85 35.1145 177.255 36.2906 176.079C37.4666 174.903 39.0616 174.242 40.7247 174.242H122.538C124.201 174.242 125.796 174.903 126.972 176.079C128.148 177.255 128.809 178.85 128.809 180.513C128.809 182.176 128.148 183.771 126.972 184.947C125.796 186.123 124.201 186.784 122.538 186.784Z" fill="#CCCCCC"/>
<path d="M154.977 189.077C159.707 189.077 163.541 185.243 163.541 180.513C163.541 175.783 159.707 171.949 154.977 171.949C150.247 171.949 146.413 175.783 146.413 180.513C146.413 185.243 150.247 189.077 154.977 189.077Z" fill="#CCCCCC"/>
<ellipse cx="177.874" cy="8.23443" rx="9.22311" ry="8.23443" fill="white"/>
<ellipse cx="15.811" cy="114.953" rx="9.22311" ry="8.23443" fill="white"/>
<ellipse cx="16.4699" cy="121.54" rx="9.22311" ry="8.23443" fill="white"/>
<ellipse cx="17.1286" cy="128.128" rx="9.22311" ry="8.23443" fill="white"/>
<ellipse cx="19.1049" cy="134.715" rx="9.22311" ry="8.23443" fill="white"/>
<ellipse cx="19.1049" cy="139.985" rx="9.22311" ry="8.23443" fill="white"/>
<ellipse cx="21.0815" cy="145.914" rx="9.22311" ry="8.23443" fill="white"/>
<ellipse cx="19.1049" cy="8.89325" rx="9.22311" ry="8.23443" fill="white"/>
<ellipse cx="15.811" cy="15.8101" rx="9.22311" ry="8.56381" fill="white"/>
<ellipse cx="172.604" cy="242.751" rx="9.22311" ry="8.23443" fill="white"/>
<ellipse cx="175.898" cy="237.481" rx="9.22311" ry="8.23443" fill="white"/>
<ellipse cx="178.533" cy="228.917" rx="9.22311" ry="8.23443" fill="white"/>
<ellipse cx="177.874" cy="234.187" rx="9.22311" ry="8.23443" fill="white"/>
<ellipse cx="179.851" cy="222.988" rx="9.22311" ry="8.23443" fill="white"/>
<ellipse cx="180.509" cy="210.472" rx="9.22311" ry="20.7508" fill="white"/>
<ellipse cx="175.239" cy="178.193" rx="9.22311" ry="20.7508" fill="white"/>
<ellipse rx="9.57037" ry="20.6579" transform="matrix(0.994156 -0.107951 0.107964 0.994155 177.988 189.98)" fill="white"/>
<ellipse cx="172.604" cy="191.368" rx="9.22311" ry="59.6173" fill="white"/>
<ellipse cx="10.5407" cy="44.4659" rx="9.22311" ry="8.23443" fill="white"/>
<ellipse cx="11.8584" cy="41.1722" rx="9.22311" ry="8.23443" fill="white"/>
<ellipse cx="13.176" cy="23.7152" rx="9.22311" ry="8.56381" fill="white"/>
<ellipse cx="11.8584" cy="29.9733" rx="9.22311" ry="8.23443" fill="white"/>
<ellipse cx="10.5407" cy="37.2197" rx="9.22311" ry="8.23443" fill="white"/>
<ellipse cx="165.357" cy="76.7449" rx="9.22311" ry="8.23443" fill="white"/>
<ellipse cx="164.04" cy="78.0624" rx="9.22311" ry="8.23443" fill="white"/>
<ellipse cx="166.675" cy="71.4749" rx="9.22311" ry="8.23443" fill="white"/>
<ellipse cx="168.651" cy="52.3709" rx="9.22311" ry="20.092" fill="white"/>
<ellipse cx="174.58" cy="20.092" rx="9.22311" ry="8.23443" fill="white"/>
<ellipse cx="172.604" cy="24.7033" rx="9.22311" ry="8.23443" fill="white"/>
<ellipse cx="173.263" cy="27.9971" rx="9.22311" ry="8.23443" fill="white"/>
<ellipse cx="171.286" cy="37.2197" rx="9.22311" ry="8.23443" fill="white"/>
<ellipse cx="169.31" cy="45.7835" rx="9.22311" ry="8.23443" fill="white"/>
<ellipse cx="175.898" cy="13.5045" rx="9.22311" ry="8.23443" fill="white"/>
<ellipse rx="9.22311" ry="18.4451" transform="matrix(0.997575 -0.069604 0.0696123 0.997574 166.619 121.149)" fill="white"/>
<ellipse cx="167.992" cy="134.057" rx="9.22311" ry="8.89319" fill="white"/>
<ellipse rx="9.22311" ry="28.3264" transform="matrix(0.9996 0.0282855 -0.0282889 0.9996 22.5377 210.392)" fill="white"/>
<ellipse cx="20.4226" cy="151.184" rx="9.22311" ry="8.23443" fill="white"/>
<ellipse cx="21.0813" cy="157.113" rx="7.90553" ry="8.23443" fill="white"/>
<ellipse cx="22.3989" cy="162.383" rx="9.22311" ry="8.23443" fill="white"/>
<ellipse cx="23.0578" cy="167.653" rx="9.22311" ry="8.23443" fill="white"/>
<ellipse cx="23.0578" cy="176.546" rx="9.22311" ry="11.8576" fill="white"/>
<ellipse cx="23.0578" cy="169.629" rx="9.22311" ry="8.23443" fill="white"/>
<ellipse cx="10.5407" cy="49.736" rx="9.22311" ry="8.23443" fill="white"/>
<ellipse cx="9.22311" cy="56.3235" rx="9.22311" ry="8.23443" fill="white"/>
<ellipse cx="9.88181" cy="64.8873" rx="9.22311" ry="11.5282" fill="white"/>
<ellipse cx="9.88181" cy="74.1099" rx="9.22311" ry="8.23443" fill="white"/>
<ellipse cx="11.1994" cy="82.3443" rx="9.22311" ry="11.1988" fill="white"/>
<ellipse cx="20.7521" cy="230.564" rx="10.2113" ry="20.4214" fill="white"/>
<ellipse cx="20.4226" cy="238.799" rx="9.22311" ry="8.23443" fill="white"/>
<ellipse cx="17.1286" cy="236.164" rx="9.22311" ry="8.23443" fill="white"/>
<ellipse cx="22.3989" cy="232.211" rx="9.22311" ry="8.23443" fill="white"/>
<ellipse cx="23.7165" cy="223.647" rx="9.22311" ry="8.23443" fill="white"/>
</svg>
